<svg width="40" height="38" viewBox="0 0 40 38" fill="none" xmlns="http://www.w3.org/2000/svg">
<path d="M20.951 2.16233L24.2133 12.2011C24.6149 13.4371 25.7667 14.2739 27.0663 14.2739L37.6218 14.2743C38.5905 14.2744 38.9932 15.5139 38.2096 16.0833L29.6702 22.288C28.6189 23.052 28.1789 24.406 28.5805 25.642L31.8419 35.681C32.1412 36.6023 31.0868 37.3684 30.3031 36.799L21.7633 30.5949C20.7118 29.8311 19.2882 29.8311 18.2367 30.595L9.69691 36.799C8.9132 37.3684 7.85878 36.6023 8.15808 35.681L11.4195 25.642C11.8211 24.406 11.3811 23.052 10.3298 22.288L1.79042 16.0833C1.00676 15.5139 1.40951 14.2744 2.3782 14.2743L12.9337 14.2739C14.2333 14.2739 15.3851 13.4371 15.7867 12.2011L19.049 2.16233C19.3483 1.24107 20.6517 1.24107 20.951 2.16233Z" stroke="white" stroke-width="2"/>
</svg>
